<?xml version="1.0" encoding="UTF-8"?>
<!-- Do not edit this file with editors other than draw.io -->
<!DOCTYPE svg PUBLIC "-//W3C//DTD SVG 1.1//EN" "http://www.w3.org/Graphics/SVG/1.1/DTD/svg11.dtd">
<svg xmlns="http://www.w3.org/2000/svg" xmlns:xlink="http://www.w3.org/1999/xlink" version="1.1" width="451px" height="430px" viewBox="-0.5 -0.5 451 430" content="&lt;mxfile host=&quot;app.diagrams.net&quot; modified=&quot;2024-05-25T11:25:38.652Z&quot; agent=&quot;Mozilla/5.0 (Macintosh; Intel Mac OS X 10_15_7) AppleWebKit/537.36 (KHTML, like Gecko) Chrome/124.0.0.0 Safari/537.36&quot; version=&quot;24.2.2&quot; etag=&quot;sXT-eCGJHz5d1qbobzoM&quot; type=&quot;google&quot; scale=&quot;1&quot; border=&quot;0&quot;&gt;&#10;  &lt;diagram name=&quot;Page-1&quot; id=&quot;KNDMwpcfoYRVpo8jNGMk&quot;&gt;&#10;    &lt;mxGraphModel dx=&quot;1306&quot; dy=&quot;860&quot; grid=&quot;1&quot; gridSize=&quot;10&quot; guides=&quot;1&quot; tooltips=&quot;1&quot; connect=&quot;1&quot; arrows=&quot;1&quot; fold=&quot;1&quot; page=&quot;1&quot; pageScale=&quot;1&quot; pageWidth=&quot;827&quot; pageHeight=&quot;1169&quot; math=&quot;0&quot; shadow=&quot;0&quot;&gt;&#10;      &lt;root&gt;&#10;        &lt;mxCell id=&quot;0&quot; /&gt;&#10;        &lt;mxCell id=&quot;1&quot; parent=&quot;0&quot; /&gt;&#10;        &lt;mxCell id=&quot;2&quot; value=&quot;&quot; style=&quot;rounded=0;whiteSpace=wrap;html=1;rotation=223;flipH=0;flipV=1;fillColor=#6EBDEB;strokeWidth=4;strokeColor=none;opacity=40;&quot; vertex=&quot;1&quot; parent=&quot;1&quot;&gt;&#10;          &lt;mxGeometry x=&quot;739.42&quot; y=&quot;517.3&quot; width=&quot;314&quot; height=&quot;42&quot; as=&quot;geometry&quot; /&gt;&#10;        &lt;/mxCell&gt;&#10;        &lt;mxCell id=&quot;3&quot; value=&quot;&quot; style=&quot;verticalLabelPosition=bottom;verticalAlign=top;html=1;shape=mxgraph.basic.partConcEllipse;startAngle=0.75;endAngle=0.25;arcWidth=0.6666;strokeWidth=4;strokeColor=none;fillColor=#000000;&quot; vertex=&quot;1&quot; parent=&quot;1&quot;&gt;&#10;          &lt;mxGeometry x=&quot;782&quot; y=&quot;553&quot; width=&quot;120&quot; height=&quot;120&quot; as=&quot;geometry&quot; /&gt;&#10;        &lt;/mxCell&gt;&#10;        &lt;mxCell id=&quot;4&quot; value=&quot;&quot; style=&quot;shape=manualInput;whiteSpace=wrap;html=1;rotation=228;flipV=1;size=0;fillColor=#6EBDEB;strokeWidth=4;strokeColor=none;opacity=40;&quot; vertex=&quot;1&quot; parent=&quot;1&quot;&gt;&#10;          &lt;mxGeometry x=&quot;667.49&quot; y=&quot;420&quot; width=&quot;42&quot; height=&quot;267&quot; as=&quot;geometry&quot; /&gt;&#10;        &lt;/mxCell&gt;&#10;        &lt;mxCell id=&quot;5&quot; value=&quot;&quot; style=&quot;verticalLabelPosition=bottom;verticalAlign=top;html=1;shape=mxgraph.basic.partConcEllipse;startAngle=0.75;endAngle=0.25;arcWidth=0.6666;rotation=-180;strokeWidth=4;strokeColor=none;fillColor=#000000;&quot; vertex=&quot;1&quot; parent=&quot;1&quot;&gt;&#10;          &lt;mxGeometry x=&quot;702&quot; y=&quot;663&quot; width=&quot;120&quot; height=&quot;120&quot; as=&quot;geometry&quot; /&gt;&#10;        &lt;/mxCell&gt;&#10;        &lt;mxCell id=&quot;6&quot; value=&quot;&quot; style=&quot;rounded=0;whiteSpace=wrap;html=1;strokeWidth=4;strokeColor=none;fillColor=#000000;&quot; vertex=&quot;1&quot; parent=&quot;1&quot;&gt;&#10;          &lt;mxGeometry x=&quot;782&quot; y=&quot;615&quot; width=&quot;40&quot; height=&quot;106&quot; as=&quot;geometry&quot; /&gt;&#10;        &lt;/mxCell&gt;&#10;        &lt;mxCell id=&quot;7&quot; value=&quot;&quot; style=&quot;rounded=0;whiteSpace=wrap;html=1;strokeWidth=4;strokeColor=none;fillColor=#000000;&quot; vertex=&quot;1&quot; parent=&quot;1&quot;&gt;&#10;          &lt;mxGeometry x=&quot;862&quot; y=&quot;615&quot; width=&quot;40&quot; height=&quot;229&quot; as=&quot;geometry&quot; /&gt;&#10;        &lt;/mxCell&gt;&#10;        &lt;mxCell id=&quot;8&quot; value=&quot;&quot; style=&quot;rounded=0;whiteSpace=wrap;html=1;fillColor=#000000;strokeWidth=4;strokeColor=none;&quot; vertex=&quot;1&quot; parent=&quot;1&quot;&gt;&#10;          &lt;mxGeometry x=&quot;702&quot; y=&quot;423&quot; width=&quot;40&quot; height=&quot;298&quot; as=&quot;geometry&quot; /&gt;&#10;        &lt;/mxCell&gt;&#10;        &lt;mxCell id=&quot;9&quot; value=&quot;&quot; style=&quot;rounded=0;whiteSpace=wrap;html=1;strokeWidth=4;strokeColor=none;fillColor=#000000;&quot; vertex=&quot;1&quot; parent=&quot;1&quot;&gt;&#10;          &lt;mxGeometry x=&quot;932&quot; y=&quot;654&quot; width=&quot;40&quot; height=&quot;190&quot; as=&quot;geometry&quot; /&gt;&#10;        &lt;/mxCell&gt;&#10;        &lt;mxCell id=&quot;10&quot; value=&quot;&quot; style=&quot;rounded=0;whiteSpace=wrap;html=1;strokeWidth=4;strokeColor=none;fillColor=#000000;&quot; vertex=&quot;1&quot; parent=&quot;1&quot;&gt;&#10;          &lt;mxGeometry x=&quot;630&quot; y=&quot;653.3399999999999&quot; width=&quot;40&quot; height=&quot;190&quot; as=&quot;geometry&quot; /&gt;&#10;        &lt;/mxCell&gt;&#10;        &lt;mxCell id=&quot;11&quot; value=&quot;&quot; style=&quot;rounded=0;whiteSpace=wrap;html=1;strokeWidth=4;strokeColor=none;fillColor=#000000;&quot; vertex=&quot;1&quot; parent=&quot;1&quot;&gt;&#10;          &lt;mxGeometry x=&quot;904&quot; y=&quot;812&quot; width=&quot;26&quot; height=&quot;32&quot; as=&quot;geometry&quot; /&gt;&#10;        &lt;/mxCell&gt;&#10;        &lt;mxCell id=&quot;12&quot; value=&quot;&quot; style=&quot;rounded=0;whiteSpace=wrap;html=1;strokeWidth=4;strokeColor=none;fillColor=#000000;&quot; vertex=&quot;1&quot; parent=&quot;1&quot;&gt;&#10;          &lt;mxGeometry x=&quot;672&quot; y=&quot;811.34&quot; width=&quot;153&quot; height=&quot;32&quot; as=&quot;geometry&quot; /&gt;&#10;        &lt;/mxCell&gt;&#10;        &lt;mxCell id=&quot;13&quot; value=&quot;&quot; style=&quot;rounded=0;whiteSpace=wrap;html=1;rotation=223;flipH=0;flipV=1;fillColor=#5C9EC4;strokeWidth=4;strokeColor=none;&quot; vertex=&quot;1&quot; parent=&quot;1&quot;&gt;&#10;          &lt;mxGeometry x=&quot;748.92&quot; y=&quot;511.34&quot; width=&quot;301&quot; height=&quot;42&quot; as=&quot;geometry&quot; /&gt;&#10;        &lt;/mxCell&gt;&#10;        &lt;mxCell id=&quot;14&quot; value=&quot;&quot; style=&quot;shape=manualInput;whiteSpace=wrap;html=1;rotation=227;flipV=0;flipH=1;fillColor=#5C9EC4;size=39;strokeWidth=4;strokeColor=none;&quot; vertex=&quot;1&quot; parent=&quot;1&quot;&gt;&#10;          &lt;mxGeometry x=&quot;735.98&quot; y=&quot;445.90999999999997&quot; width=&quot;42&quot; height=&quot;70&quot; as=&quot;geometry&quot; /&gt;&#10;        &lt;/mxCell&gt;&#10;        &lt;mxCell id=&quot;15&quot; value=&quot;&quot; style=&quot;shape=manualInput;whiteSpace=wrap;html=1;rotation=228;flipV=1;size=39;fillColor=#5C9EC4;strokeWidth=4;strokeColor=none;arcSize=6;&quot; vertex=&quot;1&quot; parent=&quot;1&quot;&gt;&#10;          &lt;mxGeometry x=&quot;630&quot; y=&quot;496.69&quot; width=&quot;42&quot; height=&quot;163&quot; as=&quot;geometry&quot; /&gt;&#10;        &lt;/mxCell&gt;&#10;        &lt;mxCell id=&quot;16&quot; value=&quot;&quot; style=&quot;shape=stencil(fZbdcgIhDIWfZm8zQAg/17Z9j85U606tdqz9e/tmZ0c0uJ47xP0I5JwEBl59bp8/1kNwn6fj4W39M76ctgM/DCGM++36OJ50NPDjwKvN4bh+PR6+9i/z74/n6ctp9H74nlb4nbmSKZeJCu5vngmZ6jzzNAO7cX8FVKEsBuBKrgKg9oAE8gkCbLeUhEoEQKSUDZDLeWYRKIl8MEDRmHwfyBrBG6Amyu4+kDxxMoB3jhwgYu7TVAsVkFcWCs4CTBEoF4RctKeOxHIf8IXYpikHikAIf+MNUW94AGSSaoAoFIE3AlOyeWU+p2E5S9yfQZcQILVuQOwZdJNoS9Ls3wA5u2XZTIHECqeJ9kDpSaauRiNVcAY1QhdBzeLBli5WazpkSsBLV25uRaqWRyFawTQzRRIQYirJzq5atkBqLfouwqUxLBepthWb10vrWZY6UOAeyKCCtDV625mm9gmUC4Wc3VLJMMIE1BsA2FW9JraVlQB7n3c9oMKhCLEvIM1zBPZ25/umNQ1tVEC2G+fFCC8g398O2hNQuQlVu752DBfA+q0ptnqO5JFmeuIuo9DY7KjY71UxdJV4EntifPWorW++R/dC4t7V3DlIB5cHx2bc7eb3yvX//QNFp+bHDT/+Aw==);lineShape=1;strokeColor=default;&quot; vertex=&quot;1&quot; parent=&quot;1&quot;&gt;&#10;          &lt;mxGeometry x=&quot;710.5849510530948&quot; y=&quot;478.84414057314916&quot; width=&quot;5.840674715144019&quot; height=&quot;5.831545270446554&quot; as=&quot;geometry&quot; /&gt;&#10;        &lt;/mxCell&gt;&#10;        &lt;mxCell id=&quot;17&quot; value=&quot;&quot; style=&quot;shape=stencil(fZbdcgIhDIWfZm8zQAg/17Z9j85U606tdqz9e/tmZ0c0uJ47xP0I5JwEBl59bp8/1kNwn6fj4W39M76ctgM/DCGM++36OJ50NPDjwKvN4bh+PR6+9i/z74/n6ctp9H74nlb4nbmSKZeJCu5vngmZ6jzzNAO7cX8FVKEsBuBKrgKg9oAE8gkCbLeUhEoEQKSUDZDLeWYRKIl8MEDRmHwfyBrBG6Amyu4+kDxxMoB3jhwgYu7TVAsVkFcWCs4CTBEoF4RctKeOxHIf8IXYpikHikAIf+MNUW94AGSSaoAoFIE3AlOyeWU+p2E5S9yfQZcQILVuQOwZdJNoS9Ls3wA5u2XZTIHECqeJ9kDpSaauRiNVcAY1QhdBzeLBli5WazpkSsBLV25uRaqWRyFawTQzRRIQYirJzq5atkBqLfouwqUxLBepthWb10vrWZY6UOAeyKCCtDV625mm9gmUC4Wc3VLJMMIE1BsA2FW9JraVlQB7n3c9oMKhCLEvIM1zBPZ25/umNQ1tVEC2G+fFCC8g398O2hNQuQlVu752DBfA+q0ptnqO5JFmeuIuo9DY7KjY71UxdJV4EntifPWorW++R/dC4t7V3DlIB5cHx2bc7eb3yvX//QNFp+bHDT/+Aw==);lineShape=1;strokeColor=default;&quot; vertex=&quot;1&quot; parent=&quot;1&quot;&gt;&#10;          &lt;mxGeometry x=&quot;713.0849510530948&quot; y=&quot;473.84414057314916&quot; width=&quot;5.840674715144019&quot; height=&quot;5.831545270446554&quot; as=&quot;geometry&quot; /&gt;&#10;        &lt;/mxCell&gt;&#10;      &lt;/root&gt;&#10;    &lt;/mxGraphModel&gt;&#10;  &lt;/diagram&gt;&#10;&lt;/mxfile&gt;&#10;"><defs/><g><g><rect x="163.42" y="102.3" width="314" height="42" fill-opacity="0.4" fill="#6ebdeb" stroke="none" transform="translate(0,123.3)scale(1,-1)translate(0,-123.3)rotate(-223,320.42,123.3)" pointer-events="all"/></g><g><path d="M 206 198 C 206 164.86 232.86 138 266 138 C 299.14 138 326 164.86 326 198 L 286 198 C 286 186.95 277.05 178 266 178 C 254.95 178 246 186.95 246 198 Z" fill="#000000" stroke="none" pointer-events="all"/></g><g><path d="M 91.49 272 L 91.49 5 L 133.49 5 L 133.49 272 Z" fill-opacity="0.4" fill="#6ebdeb" stroke="none" transform="translate(0,138.5)scale(1,-1)translate(0,-138.5)rotate(-228,112.49,138.5)" pointer-events="all"/></g><g><path d="M 126 308 C 126 274.86 152.86 248 186 248 C 219.14 248 246 274.86 246 308 L 206 308 C 206 296.95 197.05 288 186 288 C 174.95 288 166 296.95 166 308 Z" fill="#000000" stroke="none" transform="rotate(-180,186,308)" pointer-events="all"/></g><g><rect x="206" y="200" width="40" height="106" fill="#000000" stroke="none" pointer-events="all"/></g><g><rect x="286" y="200" width="40" height="229" fill="#000000" stroke="none" pointer-events="all"/></g><g><rect x="126" y="8" width="40" height="298" fill="#000000" stroke="none" pointer-events="all"/></g><g><rect x="356" y="239" width="40" height="190" fill="#000000" stroke="none" pointer-events="all"/></g><g><rect x="54" y="238.34" width="40" height="190" fill="#000000" stroke="none" pointer-events="all"/></g><g><rect x="328" y="397" width="26" height="32" fill="#000000" stroke="none" pointer-events="all"/></g><g><rect x="96" y="396.34" width="153" height="32" fill="#000000" stroke="none" pointer-events="all"/></g><g><rect x="172.92" y="96.34" width="301" height="42" fill="#5c9ec4" stroke="none" transform="translate(0,117.34)scale(1,-1)translate(0,-117.34)rotate(-223,323.42,117.34)" pointer-events="all"/></g><g><path d="M 159.98 100.91 L 159.98 69.91 L 201.98 30.91 L 201.98 100.91 Z" fill="#5c9ec4" stroke="none" transform="translate(180.98,0)scale(-1,1)translate(-180.98,0)rotate(-227,180.98,65.91)" pointer-events="all"/></g><g><path d="M 54 244.69 L 54 120.69 L 96 81.69 L 96 244.69 Z" fill="#5c9ec4" stroke="none" transform="translate(0,163.19)scale(1,-1)translate(0,-163.19)rotate(-228,75,163.19)" pointer-events="all"/></g><g><path d="M 139.71 65.48 L 140.18 66.12 L 140.41 66.89 L 140.39 67.68 L 140.11 68.43 L 139.61 69.05 L 138.94 69.48 L 138.17 69.68 L 137.37 69.61 L 136.64 69.3 L 136.05 68.76 L 135.65 68.07 L 135.5 67.29 L 135.61 66.5 L 135.97 65.78 L 136.53 65.22 L 137.25 64.86 L 138.04 64.75 L 138.82 64.9 L 139.51 65.3 L 140.05 65.89 L 140.36 66.62 L 140.43 67.42 L 140.23 68.19 L 139.8 68.87 L 139.18 69.36 L 138.43 69.64 L 137.64 69.66 L 136.87 69.43 L 136.23 68.96 L 136.23 68.96 L 135.67 68.65 L 135.2 68.2 L 134.85 67.66 L 134.64 67.06 L 134.58 66.42 L 134.68 65.78 L 134.93 65.19 L 135.31 64.67 L 135.81 64.26 L 136.38 63.98 L 137.01 63.84 L 137.66 63.86 L 138.27 64.04" fill="rgb(0, 0, 0)" stroke="rgb(0, 0, 0)" stroke-miterlimit="10" pointer-events="all"/></g><g><path d="M 142.21 60.48 L 142.68 61.12 L 142.91 61.89 L 142.89 62.68 L 142.61 63.43 L 142.11 64.05 L 141.44 64.48 L 140.67 64.68 L 139.87 64.61 L 139.14 64.3 L 138.55 63.76 L 138.15 63.07 L 138 62.29 L 138.11 61.5 L 138.47 60.78 L 139.03 60.22 L 139.75 59.86 L 140.54 59.75 L 141.32 59.9 L 142.01 60.3 L 142.55 60.89 L 142.86 61.62 L 142.93 62.42 L 142.73 63.19 L 142.3 63.87 L 141.68 64.36 L 140.93 64.64 L 140.14 64.66 L 139.37 64.43 L 138.73 63.96 L 138.73 63.96 L 138.17 63.65 L 137.7 63.2 L 137.35 62.66 L 137.14 62.06 L 137.08 61.42 L 137.18 60.78 L 137.43 60.19 L 137.81 59.67 L 138.31 59.26 L 138.88 58.98 L 139.51 58.84 L 140.16 58.86 L 140.77 59.04" fill="rgb(0, 0, 0)" stroke="rgb(0, 0, 0)" stroke-miterlimit="10" pointer-events="all"/></g></g></svg>